<svg width="40" height="40" viewBox="0 0 40 40" fill="none" xmlns="http://www.w3.org/2000/svg">
<path fill-rule="evenodd" clip-rule="evenodd" d="M6.89642 6.9196C3.3693 10.4757 1.42857 15.2025 1.42857 20.2341C1.42857 30.1736 9.93395 38.5714 20.0022 38.5714C25.4994 38.5714 30.6776 36.1904 34.2106 32.0393C37.579 28.0812 39.1066 22.8655 38.4038 17.7279C37.1511 8.56735 29.353 1.55963 20.2668 1.43152C20.1771 1.43004 20.0875 1.42857 19.9978 1.42857C15.0592 1.42857 10.4162 3.3723 6.89642 6.9196ZM0 20.2326C0 14.8174 2.09301 9.72756 5.89354 5.90101C9.75124 2.02023 14.8489 -0.0769791 20.2866 0.00216072C30.0716 0.141388 38.4685 7.67579 39.8184 17.5287C40.5791 23.0758 38.9273 28.7065 35.288 32.9771C31.483 37.4397 25.9119 40 20.0023 40C9.1591 40 0 30.9488 0 20.2326ZM9.26714 25.1566H11.2429V16.6266H9.26714V25.1566ZM25.8631 16.6649C26.4031 16.6734 26.8574 17.0891 26.9317 17.6234C27.0203 18.272 26.5117 18.8491 25.8474 18.8491C25.2474 18.8491 24.7546 18.3577 24.7546 17.7691C24.7546 17.152 25.256 16.6563 25.8631 16.6649ZM24.8671 25.1623H26.8414V19.7566H24.8671V25.1623ZM17.6377 19.3504V20.1519H19.2863V21.8433H17.6377V25.179H15.6477V19.3204C15.6477 17.6733 16.6877 16.6047 18.3063 16.6047C18.722 16.6047 19.1234 16.6804 19.2863 16.7547V18.4161C19.182 18.3861 18.9891 18.3419 18.662 18.3419C18.2163 18.3419 17.6377 18.5347 17.6377 19.3504ZM22.2163 19.0421H23.6749C23.6777 19.0421 23.6806 19.045 23.6806 19.0479V20.7893C23.6806 20.7921 23.6777 20.795 23.6749 20.795H22.2163C22.2134 20.795 22.2106 20.7964 22.2106 20.7979V22.645C22.2106 23.2836 22.5077 23.4907 23.072 23.4907C23.3049 23.4907 23.5663 23.4636 23.6749 23.4336C23.6777 23.4321 23.6806 23.435 23.6806 23.4379V25.0607C23.6806 25.0621 23.6791 25.065 23.6777 25.065C23.4977 25.1407 23.142 25.2421 22.5677 25.2421C21.142 25.2421 20.2506 24.3964 20.2506 22.9864V20.5164V17.635V16.645C20.2506 16.6421 20.252 16.6393 20.2549 16.6393H22.2049C22.2091 16.6393 22.2106 16.6421 22.2106 16.645V19.0379C22.2106 19.0407 22.2134 19.0421 22.2163 19.0421ZM29.9863 19.1411H31.4334C31.4391 19.1411 31.4449 19.1469 31.4449 19.1526V20.8811C31.4449 20.8869 31.4391 20.8926 31.4334 20.8926H29.9863C29.9806 20.8926 29.9749 20.8969 29.9749 20.9026V22.6454C29.9749 23.2826 30.272 23.4911 30.8363 23.4911C31.0634 23.4911 31.3177 23.464 31.4306 23.4354C31.4377 23.434 31.4449 23.4397 31.4449 23.4469V25.0569C31.4449 25.0611 31.442 25.064 31.4377 25.0669C31.2577 25.1411 30.9034 25.2426 30.3306 25.2426C28.9049 25.2426 28.0149 24.3969 28.0149 22.9854V20.5169V17.634V16.6526C28.0149 16.6454 28.0206 16.6397 28.0263 16.6397H29.9634C29.9691 16.6397 29.9749 16.6454 29.9749 16.6526V19.1297C29.9749 19.1354 29.9806 19.1411 29.9863 19.1411ZM12.4857 25.1623H14.46V19.8294H12.4857V25.1623ZM13.4887 16.6649C14.0287 16.6734 14.483 17.0891 14.5573 17.6234C14.6459 18.272 14.1373 18.8491 13.473 18.8491C12.873 18.8491 12.3801 18.3577 12.3801 17.7691C12.3801 17.152 12.8816 16.6563 13.4887 16.6649Z" fill="#2B3492"/>
</svg>